<svg width="53" height="50" viewBox="0 0 53 50" fill="none" xmlns="http://www.w3.org/2000/svg">
<rect width="52.8169" height="50" fill="#FF0000"/>
<path d="M6.82023 37V13.7273H11.7407V32.9432H21.718V37H6.82023ZM38.8815 20.4205C38.7906 19.5038 38.4004 18.7917 37.711 18.2841C37.0216 17.7765 36.086 17.5227 34.9042 17.5227C34.1012 17.5227 33.4231 17.6364 32.8701 17.8636C32.3171 18.0833 31.8928 18.3902 31.5974 18.7841C31.3095 19.178 31.1656 19.625 31.1656 20.125C31.1504 20.5417 31.2375 20.9053 31.4269 21.2159C31.6239 21.5265 31.8928 21.7955 32.2338 22.0227C32.5747 22.2424 32.9686 22.4356 33.4156 22.6023C33.8625 22.7614 34.3398 22.8977 34.8474 23.0114L36.9383 23.5114C37.9534 23.7386 38.8853 24.0417 39.7338 24.4205C40.5822 24.7992 41.3171 25.2652 41.9383 25.8182C42.5595 26.3712 43.0406 27.0227 43.3815 27.7727C43.73 28.5227 43.908 29.3826 43.9156 30.3523C43.908 31.7765 43.5444 33.0114 42.8247 34.0568C42.1125 35.0947 41.0822 35.9015 39.7338 36.4773C38.3928 37.0455 36.7754 37.3295 34.8815 37.3295C33.0027 37.3295 31.3663 37.0417 29.9724 36.4659C28.586 35.8902 27.5027 35.0379 26.7224 33.9091C25.9497 32.7727 25.5444 31.3674 25.5065 29.6932H30.2678C30.3209 30.4735 30.5444 31.125 30.9383 31.6477C31.3398 32.1629 31.8739 32.553 32.5406 32.8182C33.2148 33.0758 33.9762 33.2045 34.8247 33.2045C35.658 33.2045 36.3815 33.0833 36.9951 32.8409C37.6163 32.5985 38.0974 32.2614 38.4383 31.8295C38.7792 31.3977 38.9497 30.9015 38.9497 30.3409C38.9497 29.8182 38.7944 29.3788 38.4838 29.0227C38.1807 28.6667 37.7338 28.3636 37.1428 28.1136C36.5595 27.8636 35.8436 27.6364 34.9951 27.4318L32.461 26.7955C30.4989 26.3182 28.9497 25.572 27.8133 24.5568C26.6769 23.5417 26.1125 22.1742 26.1201 20.4545C26.1125 19.0455 26.4875 17.8144 27.2451 16.7614C28.0103 15.7083 29.0595 14.8864 30.3928 14.2955C31.7262 13.7045 33.2413 13.4091 34.9383 13.4091C36.6656 13.4091 38.1731 13.7045 39.461 14.2955C40.7565 14.8864 41.7641 15.7083 42.4838 16.7614C43.2034 17.8144 43.5747 19.0341 43.5974 20.4205H38.8815Z" fill="white"/>
</svg>
